<svg width="181" height="178" viewBox="0 0 181 178" fill="none" xmlns="http://www.w3.org/2000/svg">
<path d="M56.5732 70V50.8047H62.8486C64.9316 50.8047 66.4961 51.2354 67.542 52.0967C68.5967 52.958 69.124 54.2324 69.124 55.9199C69.124 56.8164 68.8691 57.6118 68.3594 58.3062C67.8496 58.9917 67.1553 59.5234 66.2764 59.9014C67.3135 60.1914 68.1309 60.7451 68.7285 61.5625C69.335 62.3711 69.6382 63.3379 69.6382 64.4629C69.6382 66.1855 69.0801 67.5391 67.9639 68.5234C66.8477 69.5078 65.27 70 63.231 70H56.5732ZM59.1045 61.022V67.9302H63.2837C64.4614 67.9302 65.3887 67.627 66.0654 67.0205C66.751 66.4053 67.0938 65.5615 67.0938 64.4893C67.0938 62.1777 65.8369 61.022 63.3232 61.022H59.1045ZM59.1045 58.9917H62.9277C64.0352 58.9917 64.9185 58.7148 65.5776 58.1611C66.2456 57.6074 66.5796 56.856 66.5796 55.9067C66.5796 54.8521 66.272 54.0874 65.6567 53.6128C65.0415 53.1294 64.1055 52.8877 62.8486 52.8877H59.1045V58.9917ZM84.2456 61.1274H75.9268V67.9302H85.5903V70H73.3955V50.8047H85.4585V52.8877H75.9268V59.0576H84.2456V61.1274ZM94.397 61.4438C92.2261 60.8198 90.644 60.0552 89.6509 59.1499C88.6665 58.2358 88.1743 57.1108 88.1743 55.7749C88.1743 54.2632 88.7764 53.0151 89.9805 52.0308C91.1934 51.0376 92.7666 50.541 94.7002 50.541C96.0186 50.541 97.1919 50.7959 98.2202 51.3057C99.2573 51.8154 100.057 52.5186 100.62 53.415C101.191 54.3115 101.477 55.2915 101.477 56.355H98.9321C98.9321 55.1948 98.563 54.2852 97.8247 53.626C97.0864 52.958 96.0449 52.624 94.7002 52.624C93.4521 52.624 92.4766 52.9009 91.7734 53.4546C91.0791 53.9995 90.7319 54.7598 90.7319 55.7354C90.7319 56.5176 91.0615 57.1812 91.7207 57.7261C92.3887 58.2622 93.5181 58.7544 95.1089 59.2026C96.7085 59.6509 97.9565 60.1475 98.853 60.6924C99.7583 61.2285 100.426 61.8569 100.857 62.5776C101.296 63.2983 101.516 64.1465 101.516 65.1221C101.516 66.6777 100.91 67.9258 99.6968 68.8662C98.4839 69.7979 96.8623 70.2637 94.832 70.2637C93.5137 70.2637 92.2832 70.0132 91.1406 69.5122C89.998 69.0024 89.1147 68.3081 88.4907 67.4292C87.8755 66.5503 87.5679 65.5527 87.5679 64.4365H90.1123C90.1123 65.5967 90.5386 66.5151 91.3911 67.1919C92.2524 67.8599 93.3994 68.1938 94.832 68.1938C96.168 68.1938 97.1919 67.9214 97.9038 67.3765C98.6157 66.8315 98.9717 66.0889 98.9717 65.1484C98.9717 64.208 98.6421 63.4829 97.9829 62.9731C97.3237 62.4546 96.1284 61.9448 94.397 61.4438ZM118.035 52.8877H111.865V70H109.347V52.8877H103.19V50.8047H118.035V52.8877Z" fill="black"/>
<path d="M72.6758 94.3242C69.4596 93.3997 67.1159 92.2669 65.6445 90.9258C64.1862 89.5716 63.457 87.9049 63.457 85.9258C63.457 83.6862 64.349 81.8372 66.1328 80.3789C67.9297 78.9076 70.2604 78.1719 73.125 78.1719C75.0781 78.1719 76.8164 78.5495 78.3398 79.3047C79.8763 80.0599 81.0612 81.1016 81.8945 82.4297C82.7409 83.7578 83.1641 85.2096 83.1641 86.7852H79.3945C79.3945 85.0664 78.8477 83.7188 77.7539 82.7422C76.6602 81.7526 75.1172 81.2578 73.125 81.2578C71.276 81.2578 69.8307 81.668 68.7891 82.4883C67.7604 83.2956 67.2461 84.4219 67.2461 85.8672C67.2461 87.026 67.7344 88.0091 68.7109 88.8164C69.7005 89.6107 71.3737 90.3398 73.7305 91.0039C76.1003 91.668 77.9492 92.4036 79.2773 93.2109C80.6185 94.0052 81.6081 94.9362 82.2461 96.0039C82.8971 97.0716 83.2227 98.3281 83.2227 99.7734C83.2227 102.078 82.3242 103.927 80.5273 105.32C78.7305 106.701 76.3281 107.391 73.3203 107.391C71.3672 107.391 69.5443 107.02 67.8516 106.277C66.1589 105.522 64.8503 104.493 63.9258 103.191C63.0143 101.889 62.5586 100.411 62.5586 98.7578H66.3281C66.3281 100.477 66.9596 101.837 68.2227 102.84C69.4987 103.829 71.1979 104.324 73.3203 104.324C75.2995 104.324 76.8164 103.921 77.8711 103.113C78.9258 102.306 79.4531 101.206 79.4531 99.8125C79.4531 98.4193 78.9648 97.3451 77.9883 96.5898C77.0117 95.8216 75.2409 95.0664 72.6758 94.3242ZM104.121 93.8555H91.7969V103.934H106.113V107H88.0469V78.5625H105.918V81.6484H91.7969V90.7891H104.121V93.8555ZM114.551 103.934H128.027V107H110.781V78.5625H114.551V103.934ZM67.6172 139.934H81.0938V143H63.8477V114.562H67.6172V139.934ZM101.445 129.855H89.1211V139.934H103.438V143H85.3711V114.562H103.242V117.648H89.1211V126.789H101.445V129.855ZM118.535 131.496H111.855V143H108.086V114.562H117.5C120.703 114.562 123.164 115.292 124.883 116.75C126.615 118.208 127.48 120.331 127.48 123.117C127.48 124.888 126.999 126.431 126.035 127.746C125.085 129.061 123.757 130.044 122.051 130.695L128.73 142.766V143H124.707L118.535 131.496ZM111.855 128.43H117.617C119.479 128.43 120.957 127.948 122.051 126.984C123.158 126.021 123.711 124.732 123.711 123.117C123.711 121.359 123.184 120.012 122.129 119.074C121.087 118.137 119.577 117.661 117.598 117.648H111.855V128.43Z" fill="black"/>
</svg>
