<svg width="32" height="33" viewBox="0 0 32 33" fill="none" xmlns="http://www.w3.org/2000/svg">
<path d="M31.36 6.54658C30.5179 8.047 29.4653 9.36071 28.2489 10.4292C28.2489 10.5359 28.2489 10.7066 28.2845 10.9199L28.32 11.4106C28.3152 15.6201 27.2696 19.7333 25.3156 23.2292C24.3022 25.0426 23.1111 26.6852 21.7245 28.0932C20.2373 29.5824 18.5392 30.7385 16.7111 31.5066C14.1143 32.6204 11.3404 33.011 8.5993 32.6488C5.85815 32.2866 3.22155 31.1811 0.888916 29.4159C1.49336 29.4586 1.97336 29.5012 2.36447 29.5012C5.28003 29.5012 7.87558 28.4346 10.1511 26.3012C8.84565 26.2525 7.58384 25.7256 6.53515 24.7913C5.48645 23.857 4.70107 22.5601 4.28447 21.0746C5.21831 21.3479 6.19712 21.3035 7.11114 20.9466C5.69997 20.6147 4.42976 19.7017 3.52003 18.3652C2.5858 17.0439 2.08074 15.362 2.0978 13.6292V13.5652C2.91558 14.0772 3.84003 14.3546 4.90669 14.4186C4.05793 13.7415 3.36314 12.8213 2.88514 11.7412C2.40713 10.661 2.16097 9.4549 2.16892 8.23191C2.16892 6.93058 2.4178 5.67191 2.96892 4.41325C4.51127 6.73093 6.45157 8.62273 8.6578 9.95991C10.9128 11.331 13.3856 12.1092 15.9111 12.2426C15.7701 11.6889 15.6924 11.1147 15.68 10.5359C15.68 8.46658 16.2845 6.69591 17.5111 5.24525C18.1008 4.52555 18.8076 3.9591 19.5875 3.58109C20.3673 3.20308 21.2037 3.02159 22.0445 3.04791C22.8907 3.04885 23.7279 3.25752 24.5044 3.66108C25.281 4.06464 25.9805 4.65457 26.56 5.39458C27.9822 5.07458 29.2978 4.45591 30.5245 3.58125C30.078 5.32482 29.1005 6.80252 27.7867 7.71991C29.1022 7.50658 30.2756 7.12258 31.36 6.56791V6.54658Z" fill="black"/>
</svg>
