<svg width="400" height="288" viewBox="0 0 400 288" fill="none" xmlns="http://www.w3.org/2000/svg">
<g clip-path="url(#clip0_1_263)">
<path d="M204.315 64L204.485 199.437L154.872 73.448L188.781 204.539L109.317 94.8693L174.84 213.379L70.5147 126.915L163.531 225.395L40.904 167.573L155.571 239.837L22.3413 214.291L151.453 255.797L16 264.133L151.44 272.277L22.272 313.965L155.533 288.232L40.7653 360.656L163.477 302.664L70.32 401.277L174.768 314.667L109.077 433.269L188.701 323.483L154.6 454.621L204.395 328.563L204.035 464L220.869 329.587L254.267 460.811L237.088 326.491L302.144 445.253L252.027 319.464L344.656 418.309L264.755 308.955L379.136 381.667L274.469 295.616L403.413 337.629L280.555 280.296L415.963 288.968L282.637 263.944L416 238.733L280.576 247.603L403.517 190.091L274.512 232.285L379.301 146.088L264.819 218.963L344.872 109.493L252.109 208.469L302.397 82.6107L237.176 201.464L254.544 67.12L220.963 198.389L204.315 64Z" fill="#FFC3A0"/>
</g>
<defs>
<clipPath id="clip0_1_263">
<rect width="400" height="400" fill="white"/>
</clipPath>
</defs>
</svg>
