<svg width="400" height="288" viewBox="0 0 400 288" fill="none" xmlns="http://www.w3.org/2000/svg">
<g clip-path="url(#clip0_1_251)">
<path d="M206.315 -179L206.485 -43.5627L156.872 -169.552L190.781 -38.4613L111.317 -148.131L176.84 -29.6213L72.5147 -116.085L165.531 -17.6053L42.904 -75.4267L157.571 -3.16267L24.3413 -28.7093L153.453 12.7973L18 21.1333L153.44 29.2773L24.272 70.9653L157.533 45.232L42.7653 117.656L165.477 59.664L72.32 158.277L176.768 71.6667L111.077 190.269L190.701 80.4827L156.6 211.621L206.395 85.5627L206.035 221L222.869 86.5867L256.267 217.811L239.088 83.4907L304.144 202.253L254.027 76.464L346.656 175.309L266.755 65.9547L381.136 138.667L276.469 52.616L405.413 94.6294L282.555 37.296L417.963 45.968L284.637 20.944L418 -4.26668L282.576 4.60268L405.517 -52.9093L276.512 -10.7147L381.301 -96.912L266.819 -24.0373L346.872 -133.507L254.109 -34.5307L304.397 -160.389L239.176 -41.536L256.544 -175.88L222.963 -44.6107L206.315 -179Z" fill="#FFC3A0"/>
</g>
<defs>
<clipPath id="clip0_1_251">
<rect width="400" height="400" fill="white" transform="translate(0 -112)"/>
</clipPath>
</defs>
</svg>
